# xmcd
#
# Track frame offsets:
#   150
#   17950
#   32580
#   50369
#   64858
#   78916
#   94910
#   106510
#   125098
#   140790
#   158927
#   174870
#   192328
#   209086
#   224404
#   241593
#   255491
#   277780
#   290169
#   312264
#   331263
#
# Disc length: 4620 seconds
#
# Revision: 0
# Processed by: cddbd v1.5.2PL0 Copyright (c) Steve Scherf et al.
# Submitted via: uFREEDB ActiveX Control 1.5
#
DISCID=31120a15
DTITLE=Milionário and José Rico - Clássicos Sertanejos
DYEAR=1900
DGENRE=Country
TTITLE0=Meu Martírio
TTITLE1=Boneca Cobiçada
TTITLE2=O Último Julgamento
TTITLE3=No Colo da Noite
TTITLE4=Pombinha Branca
TTITLE5=Ébrio de Amor
TTITLE6=Sessenta Dias Apaixonados
TTITLE7=Caminheiro
TTITLE8=Se Eu não Puder te Esquecer
TTITLE9=O Vai e Vem do Carreiro
TTITLE10=Seresteiro da Lua
TTITLE11=Orgulhosa e Bonita
TTITLE12=Desventura
TTITLE13=A Pombinha Branca voltou
TTITLE14=Esquina do Adeus
TTITLE15=Canarinho do Peito Amarelo
TTITLE16=Mais um noite vou dormir sem o meu bem
TTITLE17=Vinte Anos
TTITLE18=Lembrança
TTITLE19=Entre Lágrimas
TTITLE20=Coração de luto
EXTD=
EXTT0=
EXTT1=
EXTT2=
EXTT3=
EXTT4=
EXTT5=
EXTT6=
EXTT7=
EXTT8=
EXTT9=
EXTT10=
EXTT11=
EXTT12=
EXTT13=
EXTT14=
EXTT15=
EXTT16=
EXTT17=
EXTT18=
EXTT19=
EXTT20=
PLAYORDER=
